<svg xmlns="http://www.w3.org/2000/svg" viewBox="0 0 467 467"><defs><style>.cls-1{fill:#fff;}.cls-2,.cls-3{fill:none;stroke:#000;stroke-miterlimit:10;}.cls-2{stroke-width:4px;}.cls-3{stroke-width:2px;}</style></defs><g id="Circle"><path class="cls-1" d="M250.5,479A229.5,229.5,0,0,1,88.22,87.22,229.5,229.5,0,1,1,412.78,411.78,228,228,0,0,1,250.5,479Z" transform="translate(-17 -16)"/><path d="M250.5,24a225.56,225.56,0,0,1,87.77,433.28A225.56,225.56,0,0,1,162.73,41.72,224,224,0,0,1,250.5,24m0-8h0C121.54,16,17,120.54,17,249.5h0C17,378.46,121.54,483,250.5,483h0c129,0,233.5-104.54,233.5-233.5h0C484,120.54,379.46,16,250.5,16Z" transform="translate(-17 -16)"/></g><g id="Outer_Cube" data-name="Outer Cube"><path d="M299.08,201.05V400.1H100v-199H299.08m2.75-4H97.27A1.25,1.25,0,0,0,96,198.29V402.86a1.24,1.24,0,0,0,1.25,1.24H301.83a1.24,1.24,0,0,0,1.25-1.24V198.29a1.25,1.25,0,0,0-1.25-1.24Z" transform="translate(-17 -16)"/><path d="M402.1,98V297.08h-199V98H402.1m2.81-4H200.25a1.2,1.2,0,0,0-1.2,1.2V299.88a1.2,1.2,0,0,0,1.2,1.2H404.91a1.19,1.19,0,0,0,1.19-1.2V95.22a1.19,1.19,0,0,0-1.19-1.2Z" transform="translate(-17 -16)"/><path class="cls-2" d="M97,198.05l103-103Z" transform="translate(-17 -16)"/><line class="cls-2" x1="285.08" y1="182.29" x2="388.1" y2="79.22"/><line class="cls-2" x1="285.08" y1="386.86" x2="388.1" y2="283.88"/><line class="cls-2" x1="80.02" y1="386.86" x2="183.05" y2="283.88"/></g><g id="Inner_Cube" data-name="Inner Cube"><rect class="cls-3" x="110.5" y="212.5" width="144" height="144" rx="0.1"/><rect class="cls-3" x="213.5" y="109.5" width="144" height="144" rx="0.1"/><line class="cls-3" x1="110.5" y1="212.5" x2="213.5" y2="109.5"/><line class="cls-3" x1="254.5" y1="212.5" x2="285.5" y2="181.87"/><line class="cls-3" x1="254.5" y1="356.5" x2="357.5" y2="253.5"/><line class="cls-3" x1="183.05" y1="283.88" x2="213.5" y2="253.5"/></g></svg>